<?xml version="1.0" encoding="UTF-8"?>
<svg width="200px" height="200px" viewBox="0 0 24 24" version="1.1" xmlns="http://www.w3.org/2000/svg">
    <g stroke="none" stroke-width="1" fill="none" fill-rule="evenodd">
        <path d="M3.5,2 L20.5,2 C21.3284271,2 22,2.67157288 22,3.5 L22,20.5 C22,21.3284271 21.3284271,22 20.5,22 L3.5,22 C2.67157288,22 2,21.3284271 2,20.5 L2,3.5 C2,2.67157288 2.67157288,2 3.5,2 Z M3.5,3 C3.22385763,3 3,3.22385763 3,3.5 L3,20.5 C3,20.7761424 3.22385763,21 3.5,21 L20.5,21 C20.7761424,21 21,20.7761424 21,20.5 L21,3.5 C21,3.22385763 20.7761424,3 20.5,3 L3.5,3 Z" fill="#666666" fill-rule="nonzero"></path>
        <path d="M12,6 L16,8.5 L16,13.5 L12,16 L8,13.5 L8,8.5 L12,6 Z M12,7.311 L9.237,9 L12,10.689 L14.763,9 L12,7.311 Z M15,9.466 L12.5,11 L12.5,14.534 L15,13 L15,9.466 Z M9,9.466 L9,13 L11.5,14.534 L11.5,11 L9,9.466 Z" fill="#666666" fill-rule="nonzero"></path>
    </g>
</svg> 