<?xml version="1.0" encoding="UTF-8"?>
<svg width="200" height="200" viewBox="0 0 200 200" version="1.1" xmlns="http://www.w3.org/2000/svg">
    <g fill="none" fill-rule="evenodd">
        <path d="M100,0 C155.228,0 200,44.772 200,100 C200,155.228 155.228,200 100,200 C44.772,200 0,155.228 0,100 C0,44.772 44.772,0 100,0 Z" fill="#FFFFFF"/>
        <path d="M160,100 C160,132.548 133.548,160 100,160 C66.452,160 40,132.548 40,100 C40,67.452 66.452,40 100,40 C133.548,40 160,67.452 160,100 Z" fill="#7E2F8E"/>
        <path d="M140,100 C140,121.539 121.539,140 100,140 C78.461,140 60,121.539 60,100 C60,78.461 78.461,60 100,60 C121.539,60 140,78.461 140,100 Z" fill="#0066B3"/>
        <path d="M120,100 C120,110.457 110.457,120 100,120 C89.543,120 80,110.457 80,100 C80,89.543 89.543,80 100,80 C110.457,80 120,89.543 120,100 Z" fill="#FFFFFF"/>
    </g>
</svg> 